<svg xmlns="http://www.w3.org/2000/svg" id="Layer_1" data-name="Layer 1" viewBox="0 0 506.19 107.74"><path d="M503.62,214.59a22,22,0,0,0-8.35-6A29.68,29.68,0,0,0,484.92,207a37.67,37.67,0,0,0-10,1.15,18.7,18.7,0,0,0-6.82,3.29,12.92,12.92,0,0,0-3.91,5.1,17.11,17.11,0,0,0-1.24,6.68,13.21,13.21,0,0,0,1.24,6.06,10.75,10.75,0,0,0,3.82,4.11,25.48,25.48,0,0,0,6.63,2.86q4.05,1.19,9.68,2.34T494.55,241a30.66,30.66,0,0,1,7.78,3.34,14.28,14.28,0,0,1,4.91,5,14.58,14.58,0,0,1,1.72,7.44q0,8.31-6.34,12.69t-17.51,4.39a39,39,0,0,1-14.55-2.53,34.94,34.94,0,0,1-11.79-8l1.43-1.25a31.7,31.7,0,0,0,11.21,7.73,37.44,37.44,0,0,0,13.79,2.39q10.11,0,16-3.77t5.86-11.4a14.08,14.08,0,0,0-1.33-6.44,12.35,12.35,0,0,0-4.11-4.54,26,26,0,0,0-7.06-3.24,97.42,97.42,0,0,0-10.11-2.48q-5.64-1-10-2.24a28.13,28.13,0,0,1-7.35-3.06,12.48,12.48,0,0,1-4.53-4.67,14.58,14.58,0,0,1-1.53-7,17.41,17.41,0,0,1,1.67-7.77,15.85,15.85,0,0,1,4.77-5.73,21.94,21.94,0,0,1,7.44-3.53,37.24,37.24,0,0,1,9.79-1.19A31.3,31.3,0,0,1,496,207a23.46,23.46,0,0,1,8.83,6.25Z" transform="translate(-458.77 -166.2)"/><path d="M522.51,273.36V205.62h27.58a16.91,16.91,0,0,1,7.63,1.76,19.63,19.63,0,0,1,6.06,4.68,22.51,22.51,0,0,1,4,6.58,20.58,20.58,0,0,1,1.43,7.49,22.73,22.73,0,0,1-1.34,7.73,20.77,20.77,0,0,1-3.77,6.58,18.45,18.45,0,0,1-5.82,4.58,16.22,16.22,0,0,1-7.49,1.72H524.42v26.62Zm1.91-28.53h26.33a14.71,14.71,0,0,0,6.92-1.62,15.86,15.86,0,0,0,5.2-4.29,20.52,20.52,0,0,0,3.25-6,20.89,20.89,0,0,0,1.14-6.78,18.34,18.34,0,0,0-1.34-7,19.45,19.45,0,0,0-3.67-5.92,18.52,18.52,0,0,0-5.49-4.15,14.68,14.68,0,0,0-6.67-1.58H524.42Z" transform="translate(-458.77 -166.2)"/><path d="M581.86,273.36V205.62h1.91v65.84h42.56v1.9Z" transform="translate(-458.77 -166.2)"/><path d="M682.72,271.46v1.9H638.25V205.62h43.61v1.9h-41.7v30.25h36.55v1.91H640.16v31.78Z" transform="translate(-458.77 -166.2)"/><path d="M699.22,209.34v64h-1.9V205.62h1.43l51.81,65V205.71h1.91v67.65h-2.2Z" transform="translate(-458.77 -166.2)"/><path d="M771.74,273.36V205.62H793.5a34,34,0,0,1,14,2.67,28.13,28.13,0,0,1,9.92,7.25,30.25,30.25,0,0,1,5.92,10.73,43.26,43.26,0,0,1,1.95,13.13,41.23,41.23,0,0,1-2.24,14,30.9,30.9,0,0,1-6.35,10.69,27.79,27.79,0,0,1-10,6.87,34.4,34.4,0,0,1-13.17,2.43Zm51.62-34a40,40,0,0,0-2-12.79,28.41,28.41,0,0,0-5.78-10.07,26.32,26.32,0,0,0-9.39-6.63,32.2,32.2,0,0,0-12.74-2.39H773.65v63.94H793.5A32.14,32.14,0,0,0,806.43,269a26.2,26.2,0,0,0,9.35-6.72,28.81,28.81,0,0,0,5.68-10.17A41,41,0,0,0,823.36,239.4Z" transform="translate(-458.77 -166.2)"/><path d="M865.92,257.43a10.25,10.25,0,0,0,5.53-1.43,11.36,11.36,0,0,0,3.72-3.77,17.13,17.13,0,0,0,2.1-5.39,29.61,29.61,0,0,0,.67-6.4V205.62h18.61v34.82a46.88,46.88,0,0,1-1.81,13.22,28.81,28.81,0,0,1-5.63,10.64,26.77,26.77,0,0,1-9.59,7.06,33.13,33.13,0,0,1-13.6,2.58A32.35,32.35,0,0,1,852,271.22a26.76,26.76,0,0,1-9.5-7.3,29.49,29.49,0,0,1-5.44-10.64,47.07,47.07,0,0,1-1.72-12.84V205.62H854v34.82a30.28,30.28,0,0,0,.67,6.45,17,17,0,0,0,2.1,5.43,11.19,11.19,0,0,0,3.67,3.73A10.31,10.31,0,0,0,865.92,257.43Z" transform="translate(-458.77 -166.2)"/><path d="M911,166.2q10.8,30.39,21.58,60.79l12.31-21.37h20L942.35,240l21.85,33.39h-20l-11.54-20.42-11.55,20.42H900.94L922.79,240q-20.31-36.89-40.63-73.77Z" transform="translate(-458.77 -166.2)"/></svg>